<svg xmlns="http://www.w3.org/2000/svg" width="130" height="69" viewBox="0 0 130 69" fill="none"><mask id="mask0_485_213" style="mask-type:luminance" maskUnits="userSpaceOnUse" x="10" y="46" width="39" height="23"><path d="M10.9329 46.5849C11.3231 48.5627 11.9343 50.4775 12.862 52.289C16.5425 59.4764 22.4338 64.2905 30.0506 67.2077C32.0794 67.9854 31.3077 67.9044 33.4839 68.1067H33.9088C34.0041 68.1067 34.0995 68.1427 34.1689 68.2146C35.0836 68.1562 35.9983 68.1157 36.913 68.0753C39.6181 67.9 46.0079 65.5266 48.0107 62.6993C47.9587 62.7263 42.8607 64.295 37.4679 63.8949C32.6819 63.5398 31.1863 62.6139 27.2631 59.9124C27.0117 59.7371 26.7126 59.6472 26.4091 59.6472C25.9279 59.6337 25.438 59.6203 24.9655 59.5348C22.1261 59.0044 19.6464 57.7369 17.4225 55.9793C14.5223 53.6869 12.3635 50.8866 11.2624 47.3805C11.206 47.2052 11.1583 47.0299 11.102 46.8501C11.0543 46.6883 11.0023 46.531 10.9546 46.3691C10.9242 46.4366 10.9156 46.513 10.9329 46.5849Z" fill="white"></path></mask><g mask="url(#mask0_485_213)"><path d="M48.015 46.3735H10.9155V68.2145H48.015V46.3735Z" fill="url(#paint0_linear_485_213)"></path></g><mask id="mask1_485_213" style="mask-type:luminance" maskUnits="userSpaceOnUse" x="14" y="0" width="36" height="12"><path d="M26.9208 1.07365C23.5611 1.7344 20.4399 2.9885 17.6741 4.99324C16.4083 5.91021 15.2248 7.11036 14.6699 8.02733C15.1121 7.29915 26.7734 -0.171455 42.5444 6.37319C43.7626 6.87663 44.907 7.54188 46.0255 8.24759C46.7884 8.73304 47.5341 9.24547 48.2624 9.79385C48.7652 10.1714 49.6192 10.5984 49.9964 11.1199C48.0153 8.37794 44.2307 4.66961 41.3566 3.02895C41.2092 2.94355 41.0618 2.86264 40.9144 2.78173C38.0273 1.23546 34.9494 0.574707 31.8064 0.574707C30.1895 0.574707 28.5551 0.75001 26.9208 1.07365Z" fill="white"></path></mask><g mask="url(#mask1_485_213)"><path d="M49.9964 -0.171631H14.6699V11.1197H49.9964V-0.171631Z" fill="url(#paint1_linear_485_213)"></path></g><mask id="mask2_485_213" style="mask-type:luminance" maskUnits="userSpaceOnUse" x="0" y="11" width="24" height="45"><path d="M23.1883 11.6862C19.7202 12.2705 16.4082 13.5876 13.456 15.5564C8.33633 18.9456 4.62118 23.4585 2.13719 28.9468C1.18781 31.046 0.472522 33.2125 0.190743 35.5005C0.125717 36.0443 0.065026 36.5927 0 37.1366V39.2762C0.0303455 39.3841 0.0520208 39.4965 0.065026 39.6133C0.199413 41.8923 0.663265 44.1353 1.44358 46.2704C2.72676 49.7674 4.51714 52.9454 7.75543 55.1614C7.74677 55.1299 7.73809 55.0984 7.72509 55.067C4.7599 49.8349 3.71082 44.2566 4.54315 38.3458C5.11538 34.2913 6.62832 30.5965 9.14699 27.3017C9.26837 27.1398 9.32473 26.9151 9.35507 26.7128C9.43311 26.1599 9.41143 25.5801 9.55449 25.0452C11.0848 19.3411 14.6829 15.3001 20.1147 12.774C21.1074 12.311 22.1912 12.0368 23.236 11.6862C23.223 11.6862 23.2056 11.6862 23.1926 11.6862M23.236 11.6862C23.275 11.6772 23.3183 11.6682 23.353 11.6458C23.314 11.6592 23.275 11.6727 23.236 11.6862Z" fill="white"></path></mask><g mask="url(#mask2_485_213)"><path d="M23.3487 11.6414H0V55.157H23.3487V11.6414Z" fill="url(#paint2_linear_485_213)"></path></g><mask id="mask3_485_213" style="mask-type:luminance" maskUnits="userSpaceOnUse" x="5" y="27" width="26" height="42"><path d="M9.39841 27.5806C8.40567 29.0325 7.58635 30.6102 6.9621 32.2689C4.87259 37.8561 4.77289 43.5377 6.1471 49.2778C6.89274 52.3793 8.02852 55.3549 9.84058 58.0205C13.287 63.0952 18.1466 66.3136 24.155 67.9138C26.639 68.5746 28.6808 68.6465 30.6576 68.2779C30.6272 68.2599 30.5969 68.242 30.5622 68.2285C25.824 66.9339 21.7447 64.5471 18.3243 61.122C14.5311 57.3237 12.1122 52.8468 11.2885 47.5832C11.2495 47.3494 11.1411 47.1292 10.9764 46.9629C10.0443 46.0953 9.43742 45.0211 8.90854 43.9018C7.84212 41.6319 7.35225 39.245 7.27856 36.7638C7.18752 33.8017 7.73807 30.9653 9.14264 28.3133C9.31604 27.9897 9.48511 27.666 9.65851 27.3424L9.60215 27.293C9.53713 27.3874 9.46343 27.4773 9.39841 27.5717" fill="white"></path></mask><g mask="url(#mask3_485_213)"><path d="M30.6533 27.3018H4.77295V68.6508H30.6533V27.3018Z" fill="url(#paint3_linear_485_213)"></path></g><mask id="mask4_485_213" style="mask-type:luminance" maskUnits="userSpaceOnUse" x="0" y="5" width="45" height="26"><path d="M24.1767 5.92813C20.4486 6.36864 16.8895 7.36651 13.5341 9.01616C9.35945 11.0704 6.26421 14.2033 3.97096 18.1094C1.76441 21.8627 0.472559 25.8408 1.07947 30.3132C1.11415 30.2683 1.14449 30.2188 1.17051 30.1694C2.50571 25.5576 4.96802 21.584 8.50977 18.2578C12.4243 14.5764 17.0412 12.2301 22.4644 11.4434C22.6854 11.3985 22.8979 11.2996 23.0756 11.1558C23.5611 10.7962 23.999 10.3602 24.5105 10.0455C26.8905 8.58914 29.5218 7.87444 32.305 7.62722C36.6487 7.24066 40.6716 8.11717 44.3088 10.5085C44.3955 10.5669 44.4908 10.6164 44.5819 10.6658C44.5819 10.6119 44.5732 10.5894 44.5559 10.5759C44.4648 10.504 44.3695 10.4366 44.2741 10.3691C41.9201 8.69702 39.3148 7.52384 36.5143 6.76419C33.7962 6.02702 31.0521 5.68091 28.2777 5.68091C26.9165 5.68091 25.5509 5.76182 24.1767 5.92364" fill="white"></path></mask><g mask="url(#mask4_485_213)"><path d="M44.5862 5.6853H0.468262V30.3176H44.5862V5.6853Z" fill="url(#paint4_linear_485_213)"></path></g><mask id="mask5_485_213" style="mask-type:luminance" maskUnits="userSpaceOnUse" x="15" y="38" width="13" height="23"><path d="M27.0032 60.007L27.0509 59.98C27.0162 59.9665 26.9815 59.953 26.9468 59.944L27.0032 60.007ZM15.4242 39.056C15.0037 41.3304 14.995 43.6049 15.5326 45.8568C17.0499 52.2262 20.8994 56.8515 26.8254 59.8901C26.8645 59.9126 26.9035 59.926 26.9468 59.944L26.574 59.508L26.4006 59.3417C26.0191 59.0585 25.642 58.7663 25.2562 58.4877C20.8647 55.0985 19.4298 53.3994 18.0123 50.617C16.599 47.8301 15.4892 45.0343 15.3809 41.9193C15.3462 40.9259 15.4155 39.928 15.4459 38.9346C15.4372 38.9751 15.4286 39.0155 15.4199 39.0605M15.4459 38.9346C15.4589 38.8807 15.4632 38.8222 15.4502 38.7683C15.4502 38.8222 15.4502 38.8807 15.4459 38.9346Z" fill="white"></path></mask><g mask="url(#mask5_485_213)"><path d="M27.0509 38.7637H14.9951V60.0068H27.0509V38.7637Z" fill="url(#paint5_linear_485_213)"></path></g><mask id="mask6_485_213" style="mask-type:luminance" maskUnits="userSpaceOnUse" x="9" y="15" width="23" height="13"><path d="M9.74512 27.0995C10.261 26.5646 10.7118 26.0971 11.1627 25.6251C11.219 25.5667 11.2624 25.4993 11.3101 25.4363C13.6944 22.3798 16.6032 19.921 20.1449 18.1995C23.3356 16.6487 26.6996 15.8846 30.2847 16.1453C30.5664 16.1677 30.8439 16.1992 31.1257 16.2217C30.0246 16.0014 28.9105 15.8936 27.792 15.8936C20.5394 15.8936 13.2132 20.3975 9.74512 27.0995Z" fill="white"></path></mask><g mask="url(#mask6_485_213)"><path d="M31.1257 15.8845H9.74512V27.0994H31.1257V15.8845Z" fill="url(#paint6_linear_485_213)"></path></g><mask id="mask7_485_213" style="mask-type:luminance" maskUnits="userSpaceOnUse" x="10" y="24" width="8" height="23"><path d="M10.9546 34.2103C9.74944 38.2692 9.80146 42.3102 11.1063 46.3332C11.1106 45.632 11.1323 44.9307 11.037 44.2385C10.5861 41.0561 10.7032 37.9006 11.4965 34.7766C12.2811 31.6931 13.6467 28.8838 15.8012 26.47C16.4991 25.6924 17.2318 24.9507 17.6176 24.5461C14.4703 26.7756 12.1684 30.1379 10.9546 34.2058" fill="white"></path></mask><g mask="url(#mask7_485_213)"><path d="M17.6177 24.5503H9.74951V46.3373H17.6177V24.5503Z" fill="url(#paint7_linear_485_213)"></path></g><mask id="mask8_485_213" style="mask-type:luminance" maskUnits="userSpaceOnUse" x="26" y="53" width="22" height="7"><path d="M36.5533 59.1531C40.0734 59.8993 45.9431 59.5082 47.8765 58.3755C47.5904 58.4115 47.3216 58.4654 47.0529 58.4699C46.563 58.4834 46.0731 58.4699 45.5833 58.4699H45.5919C45.2451 58.5149 44.8983 58.5598 44.5472 58.6003C41.8161 58.8924 39.0937 58.8385 36.3886 58.3575C32.7775 57.7193 29.4828 56.4067 26.6694 54.0604C26.6217 54.0244 26.5697 53.9974 26.522 53.9705C29.3398 56.6584 32.7081 58.3351 36.5533 59.1531Z" fill="white"></path></mask><g mask="url(#mask8_485_213)"><path d="M47.8765 53.9705H26.522V59.8948H47.8765V53.9705Z" fill="url(#paint8_linear_485_213)"></path></g><mask id="mask9_485_213" style="mask-type:luminance" maskUnits="userSpaceOnUse" x="24" y="11" width="18" height="3"><path d="M24.0812 11.4929C24.5798 11.4929 25.23 11.5198 25.8673 11.4884C27.7444 11.385 29.6258 11.385 31.5029 11.4974C34.3163 11.6727 36.9694 12.0682 39.3624 12.7964C40.2684 13.0706 41.0964 13.4032 41.6729 13.6055C38.3349 11.8974 33.4493 11.1198 29.0536 11.1243C27.2675 11.1243 25.5638 11.2501 24.0769 11.4974" fill="white"></path></mask><g mask="url(#mask9_485_213)"><path d="M41.673 11.1201H24.0813V13.6058H41.673V11.1201Z" fill="url(#paint9_linear_485_213)"></path></g><path d="M48.8563 32.1605C47.7206 33.3516 47.1527 34.79 47.1527 36.4801C47.1527 38.1702 47.7206 39.6086 48.8563 40.7997C49.9921 41.9909 51.4097 42.5842 53.122 42.5842C54.8041 42.5842 56.2043 41.9909 57.3271 40.7997C58.4498 39.6086 59.0091 38.1702 59.0091 36.4801C59.0091 34.7945 58.4498 33.3516 57.3271 32.1605C56.2043 30.9693 54.8041 30.376 53.122 30.376C51.414 30.376 49.9921 30.9693 48.8563 32.1605ZM44.9721 44.2429C43.1427 42.1392 42.228 39.5502 42.228 36.4801C42.228 33.4101 43.1427 30.8165 44.9721 28.7128C46.8015 26.6092 49.1425 25.5574 51.9993 25.5574C53.8157 25.5574 55.3806 26.0159 56.7028 26.9283C58.025 27.8408 58.9657 29.005 59.5249 30.4164L59.8067 25.9754H64.4929V46.9848H59.8067L59.5249 42.5033C58.9657 43.9147 58.025 45.0834 56.7028 46.0094C55.3806 46.9354 53.8157 47.3983 51.9993 47.4028C49.1425 47.4028 46.7972 46.351 44.9721 44.2474" fill="#1F1A4D"></path><path d="M84.3517 25.9756H89.2763V46.985H84.6335L84.3907 43.87C82.1235 46.2253 79.6004 47.3985 76.8217 47.3985C74.394 47.3985 72.543 46.6164 71.2771 45.0522C70.0069 43.4879 69.374 41.2674 69.374 38.3906V25.9756H74.2987V36.0263C74.2987 38.3772 74.6801 40.0628 75.4388 41.0696C76.1974 42.081 77.2985 42.5844 78.7421 42.5844C80.4501 42.5844 81.8113 41.9776 82.8257 40.7595C83.8401 39.5413 84.3473 38.0176 84.3473 36.1926V25.9756H84.3517Z" fill="#1F1A4D"></path><path d="M103.569 25.5574C104.614 25.5574 105.429 25.863 106.01 26.4699L105.29 30.9109C104.683 30.5468 103.99 30.358 103.287 30.3715C101.978 30.3715 100.972 31.0232 100.266 32.3223C99.5592 33.6213 99.2037 35.3923 99.2037 37.6353V46.9803H94.2791V25.9709H98.9262L99.208 28.9601V29.0005C100.383 26.7036 101.835 25.5529 103.569 25.5574Z" fill="#1F1A4D"></path><path d="M114.32 32.1605C113.184 33.3516 112.616 34.79 112.621 36.4801C112.621 38.1702 113.189 39.6086 114.32 40.7997C115.456 41.9909 116.878 42.5842 118.586 42.5842C120.268 42.5842 121.668 41.9909 122.791 40.7997C123.913 39.6086 124.473 38.1702 124.473 36.4801C124.473 34.7945 123.913 33.3516 122.791 32.1605C121.668 30.9693 120.268 30.376 118.586 30.376C116.878 30.376 115.456 30.9693 114.32 32.1605ZM110.436 44.2429C108.606 42.1392 107.692 39.5502 107.692 36.4801C107.692 33.4056 108.606 30.8165 110.436 28.7128C112.265 26.6092 114.606 25.5574 117.463 25.5574C119.279 25.5574 120.849 26.0159 122.166 26.9283C123.489 27.8408 124.429 29.005 124.989 30.4164L125.27 25.9754H129.952V46.9848H125.27L124.989 42.5033C124.429 43.9147 123.489 45.0834 122.166 46.0094C120.844 46.9354 119.275 47.3983 117.463 47.4028C114.606 47.4028 112.265 46.351 110.436 44.2474" fill="#1F1A4D"></path><path d="M85.6783 52.896C85.1321 52.896 84.6812 53.0533 84.3214 53.3725C83.9746 53.6556 83.7665 54.0827 83.7492 54.5412H87.6031C87.5727 54.0917 87.3646 53.6736 87.0308 53.3815C86.6797 53.0578 86.2289 52.896 85.674 52.896M89.4238 55.3547V55.8492H83.7449C83.7579 56.3346 83.9659 56.7931 84.3171 57.1168C84.6769 57.4584 85.1754 57.6337 85.8084 57.6337C86.658 57.6337 87.2779 57.2786 87.6638 56.5729L89.2677 56.7572C89.1377 57.382 88.7649 57.9618 88.1493 58.5012C87.5337 59.0406 86.7491 59.3103 85.7997 59.3103C84.6639 59.3103 83.7319 58.9192 83.0122 58.1326C82.2883 57.3505 81.9285 56.3751 81.9285 55.2199C81.9285 54.1006 82.2753 53.1567 82.9732 52.3836C83.6668 51.6104 84.5729 51.2239 85.6783 51.2239C86.8054 51.2239 87.7114 51.6239 88.4007 52.424C89.09 53.2241 89.4325 54.1995 89.4325 55.3592" fill="#1F1A4D"></path><path d="M95.5536 51.2193C96.451 51.2193 97.1359 51.507 97.6084 52.0869C98.0766 52.6667 98.315 53.4893 98.3107 54.5546V59.1529H96.4857V55.4311C96.4857 54.5591 96.3426 53.9388 96.0608 53.5612C95.779 53.1881 95.3715 52.9993 94.8383 52.9993C94.2141 52.9993 93.7199 53.2106 93.3471 53.6376C92.9742 54.0646 92.7792 54.604 92.7618 55.2603V59.1529H90.9368V51.3722H92.6621L92.7532 52.5229C93.5898 51.6509 94.5219 51.2148 95.5536 51.2148" fill="#1F1A4D"></path><path d="M103.474 52.896C102.932 52.896 102.477 53.0533 102.117 53.3725C101.77 53.6556 101.562 54.0827 101.545 54.5412H105.398C105.368 54.0917 105.164 53.6691 104.826 53.3815C104.475 53.0578 104.02 52.896 103.469 52.896M107.219 55.3547V55.8492H101.54C101.553 56.3346 101.761 56.7931 102.112 57.1168C102.472 57.4584 102.971 57.6337 103.604 57.6337C104.453 57.6337 105.073 57.2786 105.459 56.5729L107.059 56.7572C106.929 57.382 106.556 57.9618 105.94 58.5012C105.325 59.0406 104.54 59.3103 103.591 59.3103C102.455 59.3103 101.523 58.9192 100.803 58.1326C100.084 57.3505 99.7195 56.3751 99.7195 55.2199C99.7195 54.1006 100.066 53.1567 100.764 52.3836C101.458 51.6104 102.364 51.2239 103.469 51.2239C104.596 51.2239 105.502 51.6239 106.192 52.424C106.877 53.2241 107.223 54.1995 107.223 55.3592" fill="#1F1A4D"></path><path d="M112.179 51.2192C112.564 51.2192 112.864 51.3316 113.085 51.5564L112.816 53.2015C112.59 53.0667 112.335 52.9992 112.075 53.0037C111.589 53.0037 111.216 53.2465 110.956 53.7274C110.696 54.2084 110.566 54.8646 110.562 55.6962V59.1573H108.737V51.3766H110.458L110.562 52.4823V52.4958C110.995 51.6463 111.533 51.2192 112.179 51.2192Z" fill="#1F1A4D"></path><path d="M118.807 60.308C118.807 59.6202 118.018 59.2786 116.436 59.2786H116.241C116.045 59.3685 115.868 59.5079 115.729 59.6787C115.595 59.8315 115.517 60.0248 115.517 60.2316C115.517 60.5597 115.664 60.8159 115.963 61.0047C116.262 61.189 116.661 61.2834 117.164 61.2834C118.261 61.2834 118.807 60.9552 118.807 60.308ZM115.946 55.1073C116.232 55.359 116.596 55.4939 116.969 55.4849C117.342 55.4939 117.701 55.359 117.983 55.1073C118.261 54.8736 118.417 54.5185 118.408 54.1454C118.417 53.7723 118.261 53.4127 117.983 53.17C117.701 52.9183 117.337 52.7834 116.969 52.7924C116.596 52.7834 116.232 52.9183 115.946 53.17C115.664 53.4082 115.508 53.7678 115.517 54.1454C115.508 54.5185 115.668 54.8736 115.946 55.1073ZM120.589 51.381V53.0576L119.878 52.9497C120.051 53.3228 120.142 53.7319 120.146 54.1499C120.146 54.9994 119.843 55.7006 119.236 56.249C118.629 56.7974 117.875 57.0716 116.978 57.0716C116.622 57.0761 116.267 57.0267 115.924 56.9188C115.785 57.0312 115.716 57.148 115.716 57.2739C115.716 57.5705 116.137 57.7189 116.978 57.7189C118.126 57.7189 119.006 57.9571 119.618 58.4336C120.229 58.91 120.537 59.5303 120.537 60.29C120.537 61.0901 120.207 61.7149 119.544 62.1734C118.881 62.6319 118.092 62.8566 117.173 62.8566C116.254 62.8566 115.46 62.6274 114.801 62.1734C114.138 61.7194 113.809 61.0901 113.809 60.29C113.809 59.6023 114.09 59.0719 114.654 58.6898C114.22 58.3796 114.004 58.02 114.004 57.6155C114.004 57.1121 114.298 56.7075 114.892 56.4019C114.173 55.84 113.809 55.0893 113.809 54.1589C113.809 53.3093 114.112 52.6081 114.715 52.0597C115.317 51.5114 116.076 51.2372 116.982 51.2327C117.519 51.2327 118.048 51.345 118.538 51.5698L120.597 51.3855L120.589 51.381Z" fill="#1F1A4D"></path><path d="M128.045 51.3767L125.851 56.8021L123.64 51.3767H121.685L124.872 59.135L123.419 62.6905H125.344L130 51.3767H128.045Z" fill="#1F1A4D"></path><defs><linearGradient id="paint0_linear_485_213" x1="10.1243" y1="57.2953" x2="47.2225" y2="57.2953" gradientUnits="userSpaceOnUse"><stop stop-color="#FCEE21"></stop><stop offset="1" stop-color="#F7931E"></stop></linearGradient><linearGradient id="paint1_linear_485_213" x1="15.338" y1="5.4726" x2="50.6644" y2="5.4726" gradientUnits="userSpaceOnUse"><stop stop-color="#FCEE21"></stop><stop offset="1" stop-color="#F7931E"></stop></linearGradient><linearGradient id="paint2_linear_485_213" x1="13.5066" y1="47.8402" x2="33.7057" y2="42.3637" gradientUnits="userSpaceOnUse"><stop stop-color="#FEC015"></stop><stop offset="1" stop-color="#FF8533"></stop></linearGradient><linearGradient id="paint3_linear_485_213" x1="6.21482" y1="47.9767" x2="31.6356" y2="47.9767" gradientUnits="userSpaceOnUse"><stop stop-color="#FCEE21"></stop><stop offset="1" stop-color="#F7931E"></stop></linearGradient><linearGradient id="paint4_linear_485_213" x1="0.263759" y1="17.9996" x2="43.9179" y2="17.9996" gradientUnits="userSpaceOnUse"><stop stop-color="#FCEE21"></stop><stop offset="1" stop-color="#F7931E"></stop></linearGradient><linearGradient id="paint5_linear_485_213" x1="14.1068" y1="49.3856" x2="26.0413" y2="49.3856" gradientUnits="userSpaceOnUse"><stop stop-color="#FCEE21"></stop><stop offset="1" stop-color="#F7931E"></stop></linearGradient><linearGradient id="paint6_linear_485_213" x1="9.52856" y1="21.4925" x2="30.9091" y2="21.4925" gradientUnits="userSpaceOnUse"><stop stop-color="#FCEE21"></stop><stop offset="1" stop-color="#F7931E"></stop></linearGradient><linearGradient id="paint7_linear_485_213" x1="10.6423" y1="35.4436" x2="18.1767" y2="35.4436" gradientUnits="userSpaceOnUse"><stop stop-color="#FCEE21"></stop><stop offset="1" stop-color="#F7931E"></stop></linearGradient><linearGradient id="paint8_linear_485_213" x1="26.7222" y1="56.9336" x2="48.0768" y2="56.9336" gradientUnits="userSpaceOnUse"><stop stop-color="#FCEE21"></stop><stop offset="1" stop-color="#F7931E"></stop></linearGradient><linearGradient id="paint9_linear_485_213" x1="22.9133" y1="12.3624" x2="40.505" y2="12.3624" gradientUnits="userSpaceOnUse"><stop stop-color="#FCEE21"></stop><stop offset="1" stop-color="#F7931E"></stop></linearGradient></defs></svg>